# xmcd
#
# Track frame offsets:
#	150
#	19498
#	33346
#	52011
#	68854
#	80891
#	91560
#	104250
#	122558
#	137175
#	150635
#	163554
#	176517
#	186581
#	205128
#	220575
#	242413
#	262080
#	273049
#	286877
#	309425
#	325206
#
# Disc length: 4516 seconds
#
# Revision: 1
# Processed by: cddbd v1.5.2PL0 Copyright (c) Steve Scherf et al.
# Submitted via: EasyCDDAExtractor 11.5.3.1
#
DISCID=3811a216
DTITLE=Georgie Fame - Survival - A Career Anthology 1963 - 2015 [Disc 3]
DYEAR=2017
DGENRE=Soul
TTITLE0=Seven Power
TTITLE1=Everlovin' Woman
TTITLE2=Ozone
TTITLE3=Leaving the City Behind
TTITLE4=Ali Shuffle, Round Two
TTITLE5=Lily
TTITLE6=Thanking Heaven
TTITLE7=Daylight (Alternate Version)
TTITLE8=Do I Love You
TTITLE9=Three Legged Mule
TTITLE10=Barefootin'
TTITLE11=Call Up the Devil
TTITLE12=Hall Street Jive
TTITLE13=California Girl
TTITLE14=Cool Cat Blues
TTITLE15=It's Not Supposed to Be That Way
TTITLE16=Move it on Up
TTITLE17=Hot Stuff
TTITLE18=Tempo Feliz
TTITLE19=Getaway
TTITLE20=I am What I am
TTITLE21=Little Ones (Aka Ickle Ones)
EXTD=
EXTT0=
EXTT1=
EXTT2=
EXTT3=
EXTT4=
EXTT5=
EXTT6=
EXTT7=
EXTT8=
EXTT9=
EXTT10=
EXTT11=
EXTT12=
EXTT13=
EXTT14=
EXTT15=
EXTT16=
EXTT17=
EXTT18=
EXTT19=
EXTT20=
EXTT21=
PLAYORDER=
